<svg width="800" height="400" viewBox="0 0 800 400" xmlns="http://www.w3.org/2000/svg"><mask id="satori_om-id"><rect x="0" y="0" width="800" height="400" fill="#fff"/></mask><rect x="0" y="0" width="800" height="400" fill="#fff"/><clipPath id="satori_cp-id-0"><rect x="336" y="87" width="128" height="128"/></clipPath><mask id="satori_om-id-0"><rect x="336" y="87" width="128" height="128" fill="#fff"/></mask><image x="336" y="87" width="128" height="128" href="data:image/svg+xml;utf8,%3Csvg  xmlns=%22http://www.w3.org/2000/svg%22 fill=%22none%22 stroke=%22black%22 stroke-width=%222%22 stroke-linecap=%22round%22 stroke-linejoin=%22round%22 width=%22128%22 height=%22128%22 viewBox=%220 0 24 24%22%3E%3Cpath d=%22M22 12h-4l-3 9L9 3l-3 9H2%22%3E%3C/path%3E%3C/svg%3E" preserveAspectRatio="none" clip-path="url(#satori_cp-id-0)" mask="url(#satori_om-id-0)"/><mask id="satori_om-id-0-0"><rect x="336" y="87" width="0" height="128" fill="#fff"/></mask><mask id="satori_om-id-1"><rect x="348" y="255" width="104" height="58" fill="#fff"/></mask><path fill="black" d="M377.0 275.1L370.0 275.1Q369.8 273.0 368.2 271.9Q366.7 270.7 364.0 270.7L364.0 270.7Q362.2 270.7 361.0 271.2Q359.7 271.7 359.1 272.6Q358.4 273.5 358.4 274.6L358.4 274.6Q358.4 275.6 358.8 276.3Q359.2 277.0 360 277.5Q360.8 278.0 361.8 278.3Q362.8 278.7 363.9 278.9L363.9 278.9L367.1 279.7Q369.3 280.2 371.3 281.1Q373.2 281.9 374.6 283.2Q376.0 284.4 376.7 286.1Q377.5 287.8 377.5 290.0L377.5 290.0Q377.5 293.2 375.9 295.5Q374.3 297.8 371.3 299.1Q368.2 300.4 364.0 300.4L364.0 300.4Q359.7 300.4 356.6 299.1Q353.5 297.8 351.7 295.3Q350.0 292.7 349.9 289.0L349.9 289.0L357.1 289.0Q357.2 290.7 358.1 291.9Q359.0 293.1 360.5 293.6Q362.0 294.2 363.9 294.2L363.9 294.2Q365.8 294.2 367.2 293.7Q368.5 293.1 369.3 292.2Q370.1 291.2 370.1 289.9L370.1 289.9Q370.1 288.8 369.4 288.0Q368.7 287.2 367.4 286.6Q366.1 286.0 364.1 285.6L364.1 285.6L360.3 284.6Q355.9 283.5 353.4 281.3Q350.8 279.0 350.8 275.1L350.8 275.1Q350.8 271.9 352.5 269.6Q354.2 267.2 357.2 265.9Q360.2 264.5 364.1 264.5L364.1 264.5Q367.9 264.5 370.8 265.9Q373.8 267.2 375.4 269.6Q377.0 271.9 377.0 275.1L377.0 275.1ZM382.3 265.0L389.6 265.0L389.6 299.9L382.3 299.9L382.3 265.0ZM407.2 300.4L407.2 300.4Q403.2 300.4 400.4 298.7Q397.5 297.0 395.9 294.0Q394.3 291.0 394.3 286.9L394.3 286.9Q394.3 282.9 395.9 279.8Q397.5 276.8 400.4 275.1Q403.2 273.4 407.2 273.4L407.2 273.4Q411.2 273.4 414.1 275.1Q417.0 276.8 418.5 279.8Q420.1 282.9 420.1 286.9L420.1 286.9Q420.1 291.0 418.5 294.0Q417.0 297.0 414.1 298.7Q411.2 300.4 407.2 300.4ZM407.3 294.8L407.3 294.8Q409.1 294.8 410.3 293.8Q411.5 292.8 412.1 291.0Q412.7 289.2 412.7 286.9L412.7 286.9Q412.7 284.6 412.1 282.8Q411.5 281.0 410.3 280.0Q409.1 278.9 407.3 278.9L407.3 278.9Q405.4 278.9 404.2 280.0Q403.0 281.0 402.3 282.8Q401.7 284.6 401.7 286.9L401.7 286.9Q401.7 289.2 402.3 291.0Q403.0 292.8 404.2 293.8Q405.4 294.8 407.3 294.8ZM436.6 310.3L436.6 310.3Q433.1 310.3 430.6 309.3Q428.1 308.4 426.6 306.7Q425.1 305.1 424.7 303.0L424.7 303.0L431.4 302.1Q431.7 302.9 432.4 303.6Q433.0 304.2 434.1 304.7Q435.2 305.1 436.8 305.1L436.8 305.1Q439.2 305.1 440.7 303.9Q442.3 302.8 442.3 300.1L442.3 300.1L442.3 295.3L442.0 295.3Q441.5 296.4 440.5 297.4Q439.6 298.3 438.1 298.9Q436.6 299.6 434.5 299.6L434.5 299.6Q431.5 299.6 429.1 298.2Q426.7 296.8 425.3 294.0Q423.9 291.1 423.9 286.8L423.9 286.8Q423.9 282.3 425.3 279.4Q426.8 276.4 429.2 274.9Q431.6 273.4 434.5 273.4L434.5 273.4Q436.7 273.4 438.2 274.1Q439.6 274.9 440.5 276.0Q441.5 277.1 442.0 278.1L442.0 278.1L442.2 278.1L442.2 273.7L449.4 273.7L449.4 300.2Q449.4 303.5 447.8 305.8Q446.2 308.0 443.3 309.2Q440.4 310.3 436.6 310.3ZM436.8 294.1L436.8 294.1Q438.5 294.1 439.8 293.2Q441.0 292.3 441.6 290.7Q442.3 289.1 442.3 286.8L442.3 286.8Q442.3 284.5 441.6 282.8Q441 281.1 439.8 280.1Q438.5 279.2 436.8 279.2L436.8 279.2Q435 279.2 433.8 280.1Q432.5 281.1 431.9 282.8Q431.3 284.5 431.3 286.8L431.3 286.8Q431.3 289.0 431.9 290.7Q432.6 292.3 433.8 293.2Q435 294.1 436.8 294.1Z "/></svg>